<?xml version="1.0" encoding="utf-8"?>
<!-- Generator: Adobe Illustrator 21.0.0, SVG Export Plug-In . SVG Version: 6.00 Build 0)  -->
<svg version="1.1" id="Layer_1" xmlns="http://www.w3.org/2000/svg" xmlns:xlink="http://www.w3.org/1999/xlink" x="0px" y="0px"
	 viewBox="0 0 76.7 76.7" style="enable-background:new 0 0 76.7 76.7;" xml:space="preserve">
<style type="text/css">
	.st0{fill:#2AB69E;}
	.st1{fill:#FFFFFF;}
</style>
<g transform="matrix(1, 0, 0, 1, 0, 0)">
	<g id="Path_43497-2" transform="translate(10.5 2.5)">
		<path class="st0" d="M27.8,59.7c-3.2,0-6.3-0.6-9.3-1.9c-2.8-1.2-5.4-2.9-7.6-5.1c-2.2-2.2-3.9-4.7-5.1-7.6
			C4.6,42.2,4,39.1,4,35.8s0.6-6.3,1.9-9.3c1.2-2.8,2.9-5.4,5.1-7.6c2.2-2.2,4.7-3.9,7.6-5.1c2.9-1.2,6.1-1.9,9.3-1.9
			s6.3,0.6,9.3,1.9c2.8,1.2,5.4,2.9,7.6,5.1c2.2,2.2,3.9,4.7,5.1,7.6c1.2,2.9,1.9,6.1,1.9,9.3s-0.6,6.3-1.9,9.3
			c-1.2,2.8-2.9,5.4-5.1,7.6c-2.2,2.2-4.7,3.9-7.6,5.1C34.2,59.1,31.1,59.7,27.8,59.7z"/>
		<path class="st1" d="M27.8,16C16.9,16,8,24.9,8,35.8s8.9,19.8,19.8,19.8s19.8-8.9,19.8-19.8S38.8,16,27.8,16 M27.8,8
			c15.4,0,27.8,12.5,27.8,27.8S43.2,63.7,27.8,63.7S0,51.2,0,35.8S12.5,8,27.8,8z"/>
	</g>
</g>
</svg>
